<?xml version="1.0" encoding="UTF-8" standalone="no"?>
<svg
   xmlns:dc="http://purl.org/dc/elements/1.1/"
   xmlns:cc="http://creativecommons.org/ns#"
   xmlns:rdf="http://www.w3.org/1999/02/22-rdf-syntax-ns#"
   xmlns:svg="http://www.w3.org/2000/svg"
   xmlns="http://www.w3.org/2000/svg"
   xmlns:sodipodi="http://sodipodi.sourceforge.net/DTD/sodipodi-0.dtd"
   xmlns:inkscape="http://www.inkscape.org/namespaces/inkscape"
   width="94.666672mm"
   height="108.04393mm"
   viewBox="0 0 94.666671 108.04393"
   version="1.1"
   id="svg8"
   inkscape:version="1.0.2 (1.0.2+r75+1)"
   sodipodi:docname="LogoFIPU.svg">
  <defs
     id="defs2">
    <marker
       style="overflow:visible"
       id="Arrow1Lstart"
       refX="0"
       refY="0"
       orient="auto"
       inkscape:stockid="Arrow1Lstart"
       inkscape:isstock="true">
      <path
         transform="matrix(0.8,0,0,0.8,10,0)"
         style="fill:#ffffff;fill-opacity:1;fill-rule:evenodd;stroke:none;stroke-width:1pt;stroke-opacity:1"
         d="M 0,0 5,-5 -12.5,0 5,5 Z"
         id="path2432" />
    </marker>
  </defs>
  <sodipodi:namedview
     id="base"
     pagecolor="#ffffff"
     bordercolor="#666666"
     borderopacity="1.0"
     inkscape:pageopacity="0.0"
     inkscape:pageshadow="2"
     inkscape:zoom="1.2829875"
     inkscape:cx="189.91599"
     inkscape:cy="172.90858"
     inkscape:document-units="mm"
     inkscape:current-layer="layer1"
     inkscape:document-rotation="0"
     showgrid="false"
     fit-margin-top="5"
     fit-margin-left="5"
     fit-margin-right="5"
     fit-margin-bottom="5"
     inkscape:window-width="1366"
     inkscape:window-height="704"
     inkscape:window-x="0"
     inkscape:window-y="0"
     inkscape:window-maximized="1" />
  <metadata
     id="metadata5">
    <rdf:RDF>
      <cc:Work
         rdf:about="">
        <dc:format>image/svg+xml</dc:format>
        <dc:type
           rdf:resource="http://purl.org/dc/dcmitype/StillImage" />
        <dc:title></dc:title>
      </cc:Work>
    </rdf:RDF>
  </metadata>
  <g
     inkscape:label="Layer 1"
     inkscape:groupmode="layer"
     id="layer1"
     transform="translate(933.95552,-135.58856)">
    <path
       d="m -854.74376,238.63249 h -61.97847 c -5.7818,0 -10.4689,-4.68737 -10.4689,-10.46961 V 166.1851 c 0,-5.78241 4.6871,-10.46955 10.4689,-10.46955 h 61.97847 c 5.78179,0 10.46894,4.68714 10.46894,10.46955 v 61.97778 c 0,5.78224 -4.68715,10.46961 -10.46894,10.46961"
       style="fill:#8db7c6;fill-opacity:1;fill-rule:nonzero;stroke:none;stroke-width:0.0560469"
       id="path3386" />
    <path
       d="m -856.49416,153.92883 h -61.97777 c -5.7822,0 -10.4696,4.68714 -10.4696,10.46894 v 61.9784 c 0,5.78156 4.6874,10.46893 10.4696,10.46893 h 61.97777 c 5.78224,0 10.46961,-4.68737 10.46961,-10.46893 v -61.9784 c 0,-5.7818 -4.68737,-10.46894 -10.46961,-10.46894"
       style="fill:#d5d4d8;fill-opacity:1;fill-rule:nonzero;stroke:none;stroke-width:0.0560469"
       id="path3388" />
    <path
       d="m -856.49416,151.31368 h -61.97777 c -5.7822,0 -10.4696,4.68715 -10.4696,10.46956 v 61.97778 c 0,5.78179 4.6874,10.46938 10.4696,10.46938 h 61.97777 c 5.78224,0 10.46961,-4.68759 10.46961,-10.46938 v -61.97778 c 0,-5.78241 -4.68737,-10.46956 -10.46961,-10.46956"
       style="fill:#ffffff;fill-opacity:1;fill-rule:nonzero;stroke:none;stroke-width:0.0560469"
       id="path3390" />
    <path
       d="m -846.02455,161.78324 c 0,-5.78241 -4.68737,-10.46956 -10.46961,-10.46956 h -61.97777 c -5.7822,0 -10.4696,4.68715 -10.4696,10.46956 v 8.37508 h 82.91698 v -8.37508"
       style="fill:#2158c2;fill-opacity:1;fill-rule:nonzero;stroke:#2158c2;stroke-width:0.0560469;stroke-opacity:1"
       id="path3392" />
    <path
       d="m -928.94153,167.08734 h 82.91698 v 3.07098 h -82.91698 z"
       style="fill:#2124b8;fill-opacity:1;fill-rule:nonzero;stroke:none;stroke-width:0.0560469"
       id="path3394" />
    <path
       d="m -910.28183,156.31082 c 0,1.82085 -1.4756,3.29668 -3.2967,3.29668 -1.8202,0 -3.2967,-1.47583 -3.2967,-3.29668 0,-1.82046 1.4765,-3.29673 3.2967,-3.29673 1.8211,0 3.2967,1.47627 3.2967,3.29673"
       style="fill:#212492;fill-opacity:1;fill-rule:nonzero;stroke:none;stroke-width:0.0560469"
       id="path3396" />
    <path
       d="m -913.57853,140.58856 c -1.0323,0 -1.8776,0.84507 -1.8776,1.87802 v 14.13451 c 0,1.03294 0.8453,1.87802 1.8776,1.87802 1.0329,0 1.8782,-0.84508 1.8782,-1.87802 v -14.13451 c 0,-1.03295 -0.8453,-1.87802 -1.8782,-1.87802"
       style="fill:#ededed;fill-opacity:1;fill-rule:nonzero;stroke:none;stroke-width:0.0560469"
       id="path3398" />
    <path
       d="m -858.09082,156.31082 c 0,1.82085 -1.4765,3.29668 -3.29668,3.29668 -1.82113,0 -3.29673,-1.47583 -3.29673,-3.29668 0,-1.82046 1.4756,-3.29673 3.29673,-3.29673 1.82018,0 3.29668,1.47627 3.29668,3.29673"
       style="fill:#212492;fill-opacity:1;fill-rule:nonzero;stroke:none;stroke-width:0.0560822;stroke-miterlimit:4;stroke-dasharray:none"
       id="path3400" />
    <path
       d="m -861.3875,140.58856 c -1.03294,0 -1.87824,0.84507 -1.87824,1.87802 v 14.13451 c 0,1.03294 0.8453,1.87802 1.87824,1.87802 1.03289,0 1.87757,-0.84508 1.87757,-1.87802 v -14.13451 c 0,-1.03295 -0.84468,-1.87802 -1.87757,-1.87802"
       style="fill:#ededed;fill-opacity:1;fill-rule:nonzero;stroke:none;stroke-width:0.0560469"
       id="path3402" />
    <path
       d="m -885.24843,175.67215 h 7.4328 v 7.43299 h -7.4328 z"
       style="fill:#d9dadd;fill-opacity:1;fill-rule:nonzero;stroke:none;stroke-width:0.0560469"
       id="path3404" />
    <path
       d="m -873.34693,175.67215 h 7.43298 v 7.43299 h -7.43298 z"
       style="fill:#d9dadd;fill-opacity:1;fill-rule:nonzero;stroke:none;stroke-width:0.0560469"
       id="path3406" />
    <path
       d="m -861.44534,175.67215 h 7.43344 v 7.43299 h -7.43344 z"
       style="fill:#d9dadd;fill-opacity:1;fill-rule:nonzero;stroke:none;stroke-width:0.0560469"
       id="path3408" />
    <path
       d="m -920.95413,186.45545 h 7.4334 v 7.43299 h -7.4334 z"
       style="fill:#d9dadd;fill-opacity:1;fill-rule:nonzero;stroke:none;stroke-width:0.0560469"
       id="path3410" />
    <path
       d="m -909.05213,186.45545 h 7.433 v 7.43299 h -7.433 z"
       style="fill:#d9dadd;fill-opacity:1;fill-rule:nonzero;stroke:none;stroke-width:0.0560469"
       id="path3412" />
    <path
       d="m -897.15043,186.45545 h 7.4334 v 7.43299 h -7.4334 z"
       style="fill:#d9dadd;fill-opacity:1;fill-rule:nonzero;stroke:none;stroke-width:0.0560469"
       id="path3414" />
    <path
       d="m -885.24843,186.45545 h 7.4328 v 7.43299 h -7.4328 z"
       style="fill:#d9dadd;fill-opacity:1;fill-rule:nonzero;stroke:none;stroke-width:0.0560469"
       id="path3416" />
    <path
       d="m -873.34693,186.45545 h 7.43298 v 7.43299 h -7.43298 z"
       style="fill:#d9dadd;fill-opacity:1;fill-rule:nonzero;stroke:none;stroke-width:0.0560469"
       id="path3418" />
    <path
       d="m -861.44534,186.45545 h 7.43344 v 7.43299 h -7.43344 z"
       style="fill:#d9dadd;fill-opacity:1;fill-rule:nonzero;stroke:none;stroke-width:0.0560469"
       id="path3420" />
    <path
       d="m -873.34693,197.23903 h 7.43298 v 7.43299 h -7.43298 z"
       style="fill:#d9dadd;fill-opacity:1;fill-rule:nonzero;stroke:none;stroke-width:0.0560469"
       id="path3430" />
    <path
       d="m -861.44534,197.23903 h 7.43344 v 7.43299 h -7.43344 z"
       style="fill:#d9dadd;fill-opacity:1;fill-rule:nonzero;stroke:none;stroke-width:0.0560469"
       id="path3432" />
    <path
       d="m -920.95413,208.02233 h 7.4334 v 7.43299 h -7.4334 z"
       style="fill:#d9dadd;fill-opacity:1;fill-rule:nonzero;stroke:none;stroke-width:0.0560469"
       id="path3434" />
    <path
       d="m -909.05213,208.02233 h 7.433 v 7.43299 h -7.433 z"
       style="fill:#d9dadd;fill-opacity:1;fill-rule:nonzero;stroke:none;stroke-width:0.0560469"
       id="path3436" />
    <path
       d="m -897.15043,208.02233 h 7.4334 v 7.43299 h -7.4334 z"
       style="fill:#d9dadd;fill-opacity:1;fill-rule:nonzero;stroke:none;stroke-width:0.0560469"
       id="path3438" />
    <path
       d="m -885.24843,208.02233 h 7.4328 v 7.43299 h -7.4328 z"
       style="fill:#d9dadd;fill-opacity:1;fill-rule:nonzero;stroke:none;stroke-width:0.0560469"
       id="path3440" />
    <path
       d="m -873.34693,208.02233 h 7.43298 v 7.43299 h -7.43298 z"
       style="fill:#d9dadd;fill-opacity:1;fill-rule:nonzero;stroke:none;stroke-width:0.0560469"
       id="path3442" />
    <path
       d="m -861.44534,208.02233 h 7.43344 v 7.43299 h -7.43344 z"
       style="fill:#d9dadd;fill-opacity:1;fill-rule:nonzero;stroke:none;stroke-width:0.0560469"
       id="path3444" />
    <path
       d="m -920.95413,218.80524 h 7.4334 v 7.43344 h -7.4334 z"
       style="fill:#d9dadd;fill-opacity:1;fill-rule:nonzero;stroke:none;stroke-width:0.0560469"
       id="path3446" />
    <path
       d="m -909.05213,218.80524 h 7.433 v 7.43344 h -7.433 z"
       style="fill:#d9dadd;fill-opacity:1;fill-rule:nonzero;stroke:none;stroke-width:0.0560469"
       id="path3448" />
    <path
       d="m -897.15043,218.80524 h 7.4334 v 7.43344 h -7.4334 z"
       style="fill:#d9dadd;fill-opacity:1;fill-rule:nonzero;stroke:none;stroke-width:0.0560469"
       id="path3450" />
    <path
       d="m -885.24843,218.80524 h 7.4328 v 7.43344 h -7.4328 z"
       style="fill:#d9dadd;fill-opacity:1;fill-rule:nonzero;stroke:none;stroke-width:0.0560469"
       id="path3452" />
    <path
       d="m -873.34693,218.80524 h 7.43298 v 7.43344 h -7.43298 z"
       style="fill:#d9dadd;fill-opacity:1;fill-rule:nonzero;stroke:none;stroke-width:0.0560469"
       id="path3454" />
    <g
       id="g3462"
       transform="matrix(0.15887296,0,0,0.15887296,-780.2343,118.48149)"
       style="stroke:#2158c2;stroke-opacity:1">
      <circle
         style="fill:#2158cf;fill-opacity:1;stroke:#2158c2;stroke-width:0.352999;stroke-linejoin:round;stroke-miterlimit:4;stroke-dasharray:none;stroke-opacity:1"
         id="circle3456"
         cx="-562.53864"
         cy="587.45355"
         r="23.392868" />
    </g>
    <path
       d="m -868.20177,206.83101 c -0.35753,-0.0135 -0.7144,-0.0315 -1.06846,-0.0278 -0.35349,0.002 -0.70473,0.0265 -1.04337,0.0906 -0.67632,0.13132 -1.30361,0.43721 -1.88863,0.80483 -0.5825,0.36473 -1.0983,0.81203 -1.3969,1.37146 -0.077,0.1386 -0.1397,0.2865 -0.1943,0.43634 -0.054,0.15014 -0.098,0.30424 -0.129,0.46223 -0.031,0.1572 -0.054,0.31664 -0.064,0.47658 -0.01,0.16088 -0.011,0.32168 0,0.4817 0.02,0.32024 0.078,0.64192 0.1707,0.95409 0.046,0.15655 0.099,0.31151 0.1594,0.46446 0.061,0.15208 0.1273,0.30279 0.202,0.45069 0.1476,0.29551 0.3222,0.58193 0.5115,0.85436 0.1898,0.27179 0.3989,0.5259 0.6273,0.75514 0.2293,0.22932 0.47496,0.43266 0.7414,0.60566 0.26732,0.17292 0.55662,0.31887 0.85971,0.44052 0.30279,0.12115 0.61942,0.22224 0.94219,0.29861 0.32082,0.0763 0.64221,0.12901 0.95719,0.14364 0.31462,0.0149 0.62275,-0.005 0.91263,-0.073 l 0.10759,-0.0281 c 0.0361,-0.009 0.0702,-0.0223 0.10564,-0.0332 0.0707,-0.02 0.1386,-0.051 0.20789,-0.0772 0.0338,-0.0143 0.0673,-0.0315 0.1011,-0.0467 l 0.0507,-0.0237 0.0496,-0.0267 0.0986,-0.0536 0.0966,-0.0591 c 0.51235,-0.32139 0.94054,-0.81038 1.22754,-1.36836 0.2924,-0.5634 0.45465,-1.20591 0.52114,-1.86788 0.0327,-0.33099 0.0408,-0.66897 0.0296,-1.00587 -0.0105,-0.33235 -0.0448,-0.65548 -0.13182,-0.94479 -0.0431,-0.14422 -0.0997,-0.27964 -0.1696,-0.40223 -0.0707,-0.12389 -0.15265,-0.23155 -0.25772,-0.33236 -0.10535,-0.10167 -0.22989,-0.19462 -0.36647,-0.28339 -0.0681,-0.0439 -0.14003,-0.0873 -0.21265,-0.12843 -0.0363,-0.0208 -0.0724,-0.0425 -0.10903,-0.0628 l -0.11098,-0.0591 c -0.29659,-0.1572 -0.61041,-0.28202 -0.93181,-0.3837 -0.32139,-0.10225 -0.65433,-0.16787 -0.99094,-0.2053 -0.33661,-0.0389 -0.67805,-0.036 -1.0169,-0.002 -0.33914,0.0356 -0.67488,0.11466 -1.00248,0.22506 -0.0411,0.013 -0.0808,0.0296 -0.12172,0.0448 -0.04,0.0157 -0.0814,0.0287 -0.12078,0.0467 -0.0792,0.0352 -0.16031,0.0671 -0.23775,0.10672 -0.0389,0.0186 -0.0786,0.0375 -0.11747,0.057 l -0.11494,0.0628 -0.0575,0.0309 -0.056,0.0338 -0.11213,0.0684 c -0.29601,0.18764 -0.56953,0.41464 -0.81683,0.67351 0.1994,-0.29687 0.4444,-0.56671 0.72136,-0.80309 0.27942,-0.23292 0.58813,-0.4349 0.91998,-0.5957 0.33178,-0.15944 0.68448,-0.28195 1.04899,-0.36113 0.0915,-0.018 0.1828,-0.0392 0.27546,-0.0507 0.0462,-0.006 0.0921,-0.0136 0.1386,-0.0201 l 0.13939,-0.0146 0.0699,-0.007 0.0699,-0.005 0.14025,-0.008 c 0.0468,-0.001 0.0932,-0.002 0.14033,-0.003 0.0467,-7.9e-4 0.0937,-0.003 0.14054,-7.9e-4 0.0935,0.002 0.18756,0.004 0.2808,0.0115 0.0468,0.004 0.0938,0.006 0.14062,0.0108 l 0.13968,0.0152 c 0.047,0.004 0.0932,0.0115 0.13975,0.0188 l 0.13938,0.0208 0.1386,0.026 c 0.0462,0.009 0.0924,0.0172 0.13802,0.0281 0.36733,0.0814 0.72759,0.19751 1.07408,0.34822 l 0.1298,0.0572 c 0.0428,0.0194 0.0854,0.0402 0.12793,0.0605 0.0856,0.0403 0.16953,0.0842 0.25433,0.13131 0.16932,0.0943 0.33971,0.20393 0.50109,0.33942 0.16175,0.13492 0.31073,0.30308 0.42848,0.48163 0.11913,0.17977 0.20927,0.37216 0.27914,0.56534 0.13889,0.38817 0.19658,0.77887 0.22931,1.15608 0.009,0.0952 0.0123,0.18755 0.018,0.28195 0.003,0.0937 0.008,0.18756 0.008,0.28195 0.003,0.18813 -0.002,0.37714 -0.0121,0.56671 -0.0107,0.18958 -0.0301,0.38003 -0.0555,0.5704 -0.0146,0.0947 -0.0275,0.18958 -0.0473,0.28426 l -0.0279,0.14198 -0.0327,0.14191 c -0.0104,0.0471 -0.0228,0.0938 -0.0358,0.14084 -0.013,0.0468 -0.0248,0.0944 -0.0386,0.14061 -0.029,0.0937 -0.056,0.18669 -0.0898,0.27914 -0.0637,0.18504 -0.13996,0.36704 -0.22534,0.54559 -0.0854,0.18027 -0.1859,0.35269 -0.29349,0.52143 l -0.0848,0.12338 -0.0428,0.0614 -0.0453,0.0597 c -0.0304,0.0397 -0.0603,0.08 -0.0912,0.1192 l -0.0966,0.11516 c -0.0319,0.0397 -0.0662,0.0758 -0.10031,0.11328 -0.0346,0.0369 -0.0676,0.0744 -0.1034,0.10954 -0.0721,0.0707 -0.14307,0.14285 -0.22023,0.20847 -0.0746,0.0693 -0.15525,0.13124 -0.23493,0.19463 -0.0397,0.0318 -0.0826,0.0606 -0.12396,0.0901 -0.0417,0.0304 -0.0828,0.06 -0.12706,0.0865 l -0.13038,0.0823 c -0.0448,0.0259 -0.0901,0.0498 -0.13549,0.0752 l -0.0679,0.0366 -0.0705,0.0337 c -0.0467,0.0217 -0.0932,0.0448 -0.14083,0.0656 -0.0969,0.0384 -0.1921,0.0809 -0.29241,0.11126 -0.0495,0.0158 -0.0989,0.0338 -0.14898,0.0477 -0.0504,0.0135 -0.10059,0.0273 -0.151,0.0402 -0.40389,0.0966 -0.81405,0.12396 -1.21095,0.10536 -0.39747,-0.0203 -0.78196,-0.0873 -1.15347,-0.17747 -0.36986,-0.0915 -0.73466,-0.20702 -1.09125,-0.35629 -0.35601,-0.14985 -0.70336,-0.33156 -1.03043,-0.55237 -0.3278,-0.22059 -0.6301,-0.47946 -0.8951,-0.76365 -0.2668,-0.28339 -0.5026,-0.58986 -0.7116,-0.90844 -0.2095,-0.31801 -0.3912,-0.6521 -0.5486,-1.00025 -0.079,-0.17378 -0.15,-0.35269 -0.2133,-0.53347 -0.063,-0.182 -0.12,-0.36646 -0.1634,-0.55467 -0.09,-0.37634 -0.14,-0.76444 -0.1433,-1.15658 0,-0.39235 0.049,-0.78391 0.1518,-1.16249 0.05,-0.189 0.116,-0.3749 0.1949,-0.55518 0.078,-0.18027 0.1707,-0.3555 0.2791,-0.52085 0.1076,-0.16506 0.2279,-0.32363 0.3611,-0.46785 0.1327,-0.14423 0.2755,-0.27604 0.4254,-0.39575 0.2994,-0.24027 0.622,-0.43439 0.9507,-0.60139 0.3287,-0.16593 0.66641,-0.31297 1.0191,-0.42704 0.35211,-0.11242 0.71771,-0.19239 1.08728,-0.21857 0.3687,-0.0265 0.7338,-0.003 1.09096,0.042 0.35774,0.0462 0.70899,0.11379 1.05887,0.18727"
       style="fill:#f74344;fill-opacity:1;fill-rule:nonzero;stroke:none;stroke-width:0.0721104"
       id="path3464" />
    <g
       id="g3816">
      <g
         id="g3462-3"
         transform="matrix(0.15887296,0,0,0.15887296,-822.40362,109.10176)"
         style="stroke:#2158c2;stroke-opacity:1">
        <circle
           style="fill:#2158cf;fill-opacity:1;stroke:#2158c2;stroke-width:0.352999;stroke-linejoin:round;stroke-miterlimit:4;stroke-dasharray:none;stroke-opacity:1"
           id="circle3456-1"
           cx="-596.91571"
           cy="578.15857"
           r="23.392868" />
      </g>
      <text
         xml:space="preserve"
         style="font-size:6.66678px;line-height:1.25;font-family:'Albert Sans';-inkscape-font-specification:'Albert Sans';letter-spacing:0.486011px;word-spacing:0px;fill:#ffffff;fill-opacity:1;stroke-width:0.0666678"
         x="-919.34399"
         y="203.28889"
         id="text3468"><tspan
           sodipodi:role="line"
           id="tspan3466"
           x="-919.34399"
           y="203.28889"
           style="font-style:normal;font-variant:normal;font-weight:800;font-stretch:normal;font-size:6.66678px;font-family:'Albert Sans';-inkscape-font-specification:'Albert Sans Ultra-Bold';fill:#ffffff;fill-opacity:1;stroke-width:0.0666678">F</tspan></text>
    </g>
    <g
       id="g3822">
      <g
         id="g3462-3-7"
         transform="matrix(0.15887296,0,0,0.15887296,-810.45446,109.08619)"
         style="stroke:#2158c2;stroke-opacity:1">
        <circle
           style="fill:#2158cf;fill-opacity:1;stroke:#2158c2;stroke-width:0.352999;stroke-linejoin:round;stroke-miterlimit:4;stroke-dasharray:none;stroke-opacity:1"
           id="circle3456-1-8"
           cx="-596.91571"
           cy="578.15857"
           r="23.392868" />
      </g>
      <text
         xml:space="preserve"
         style="font-size:6.66678px;line-height:1.25;font-family:'Albert Sans';-inkscape-font-specification:'Albert Sans';letter-spacing:0.486011px;word-spacing:0px;fill:#ffffff;fill-opacity:1;stroke-width:0.0666678"
         x="-906.21497"
         y="203.27332"
         id="text3468-4"><tspan
           sodipodi:role="line"
           id="tspan3466-5"
           x="-906.21497"
           y="203.27332"
           style="font-style:normal;font-variant:normal;font-weight:800;font-stretch:normal;font-size:6.66678px;font-family:'Albert Sans';-inkscape-font-specification:'Albert Sans Ultra-Bold';fill:#ffffff;fill-opacity:1;stroke-width:0.0666678">I</tspan></text>
    </g>
    <g
       id="g3564"
       transform="matrix(0.15887296,0,0,0.15887296,-798.59993,109.10176)"
       style="stroke:#2158c2;stroke-opacity:1" />
    <g
       id="g3828">
      <circle
         style="stroke:#2158c2;stroke-opacity:1;fill:#2158cf;fill-opacity:1;stroke-width:0.352999;stroke-linejoin:round;stroke-miterlimit:4;stroke-dasharray:none"
         id="circle3562"
         cx="-596.91571"
         cy="578.15857"
         r="23.392868"
         transform="matrix(0.15887296,0,0,0.15887296,-798.59993,109.10176)" />
      <text
         xml:space="preserve"
         style="font-size:6.66678px;line-height:1.25;font-family:'Albert Sans';-inkscape-font-specification:'Albert Sans';letter-spacing:0.486011px;word-spacing:0px;fill:#ffffff;fill-opacity:1;stroke-width:0.0666678"
         x="-895.71362"
         y="203.28889"
         id="text3568"><tspan
           sodipodi:role="line"
           id="tspan3566"
           x="-895.71362"
           y="203.28889"
           style="font-style:normal;font-variant:normal;font-weight:800;font-stretch:normal;font-size:6.66678px;font-family:'Albert Sans';-inkscape-font-specification:'Albert Sans Ultra-Bold';fill:#ffffff;fill-opacity:1;stroke-width:0.0666678">P</tspan></text>
    </g>
    <g
       id="g3572"
       transform="matrix(0.15887296,0,0,0.15887296,-786.69824,109.10176)"
       style="stroke:#2158c2;stroke-opacity:1" />
    <g
       id="g3834">
      <circle
         style="stroke:#2158c2;stroke-opacity:1;fill:#2158cf;fill-opacity:1;stroke-width:0.352999;stroke-linejoin:round;stroke-miterlimit:4;stroke-dasharray:none"
         id="circle3570"
         cx="-596.91571"
         cy="578.15857"
         r="23.392868"
         transform="matrix(0.15887296,0,0,0.15887296,-786.69824,109.10176)" />
      <text
         xml:space="preserve"
         style="font-size:6.66678px;line-height:1.25;font-family:'Albert Sans';-inkscape-font-specification:'Albert Sans';letter-spacing:0.486011px;word-spacing:0px;fill:#ffffff;fill-opacity:1;stroke-width:0.0666678"
         x="-883.90198"
         y="203.26556"
         id="text3576"><tspan
           sodipodi:role="line"
           id="tspan3574"
           x="-883.90198"
           y="203.26556"
           style="font-style:normal;font-variant:normal;font-weight:800;font-stretch:normal;font-size:6.66678px;font-family:'Albert Sans';-inkscape-font-specification:'Albert Sans Ultra-Bold';fill:#ffffff;fill-opacity:1;stroke-width:0.0666678">U</tspan></text>
    </g>
  </g>
</svg>
